<svg width="17" height="17" viewBox="0 0 17 17" fill="none" xmlns="http://www.w3.org/2000/svg">
<g id="&#232;&#191;&#148;&#229;&#155;&#158; (2) 1" clip-path="url(#clip0_438_43)">
<path id="Vector" d="M6.01098 4.18776C5.95777 4.13003 5.89344 4.08365 5.82185 4.05141C5.75027 4.01916 5.6729 4.00172 5.59441 4.00012C5.51591 3.99852 5.4379 4.01281 5.36507 4.04211C5.29223 4.07142 5.22607 4.11514 5.17055 4.17066C5.11503 4.22618 5.07131 4.29234 5.042 4.36518C5.0127 4.43801 4.99841 4.51602 5.00001 4.59452C5.00161 4.67301 5.01905 4.75038 5.0513 4.82196C5.08354 4.89355 5.12992 4.95788 5.18765 5.01109L8.94252 8.76676L5.18765 12.5224C4.98023 12.7283 4.96123 13.0528 5.13065 13.2808L5.18765 13.3458C5.29689 13.4548 5.44495 13.5161 5.59931 13.5161C5.75368 13.5161 5.90174 13.4548 6.01098 13.3458L10.1783 9.17842C10.2874 9.06918 10.3486 8.92112 10.3486 8.76676C10.3486 8.61239 10.2874 8.46433 10.1783 8.35509L6.01098 4.18776Z" fill="#666666"/>
</g>
<defs>
<clipPath id="clip0_438_43">
<rect width="17" height="17" fill="white" transform="matrix(-1 0 0 1 17 0)"/>
</clipPath>
</defs>
</svg>
