<svg width="18" height="18" viewBox="0 0 18 18" fill="none" xmlns="http://www.w3.org/2000/svg">
<g id="Frame 17">
<path id="Vector" d="M13.058 16.3952C12.8329 16.3952 12.58 16.3307 12.3455 16.2134L8.9972 14.5387L5.62815 16.2107C5.41479 16.3243 5.17056 16.3839 4.92151 16.3839C4.59789 16.3852 4.28252 16.2819 4.02231 16.0895C3.55079 15.7358 3.30918 15.1231 3.42071 14.5651L4.10976 10.9906L1.46871 8.52906C1.26828 8.32599 1.12482 8.07374 1.05274 7.79766C0.980655 7.52158 0.982496 7.23139 1.05807 6.95625L1.06336 6.93809C1.25536 6.36266 1.73167 5.95945 2.3092 5.88209L5.97856 5.21491L7.62551 1.86992C7.89007 1.34031 8.42817 1 8.9972 1C9.59079 1 10.1428 1.35313 10.3742 1.87953L12.0159 5.21391L15.6858 5.85553C15.9709 5.89684 16.238 6.01965 16.455 6.20918C16.6719 6.39871 16.8295 6.64689 16.9087 6.92386C16.9976 7.1965 17.0089 7.48848 16.9413 7.76717C16.8738 8.04586 16.7301 8.30028 16.5263 8.50202L16.5173 8.51106L13.8837 10.9911L14.5493 14.572C14.6565 15.1447 14.4287 15.7231 13.9546 16.0836C13.7006 16.2878 13.3838 16.3979 13.058 16.3952ZM8.99847 13.3319L12.5558 15.1108C12.6602 15.1635 12.7806 15.1966 12.863 15.1966C12.9898 15.1966 13.1076 15.1575 13.1941 15.0854L13.2102 15.0721C13.4123 14.9204 13.5109 14.6794 13.4666 14.4434L12.7508 10.5871L15.5822 7.92066C15.7561 7.74441 15.8155 7.49202 15.7384 7.25994L15.7306 7.23553C15.7001 7.12556 15.638 7.02695 15.552 6.95195C15.466 6.87695 15.3598 6.82885 15.2467 6.81361L15.2306 6.81106L11.3127 6.12616L9.54943 2.54459C9.46384 2.34452 9.23151 2.19931 8.99695 2.19931C8.76648 2.19931 8.546 2.34363 8.43431 2.56644L6.68231 6.12458L2.74384 6.84002C2.50462 6.87002 2.31879 7.02889 2.23295 7.27666C2.172 7.50306 2.24423 7.77586 2.41064 7.94594L5.24536 10.5875L4.50145 14.4458C4.45671 14.6689 4.56239 14.9257 4.75784 15.0723C4.85584 15.146 4.98279 15.1867 5.11592 15.1867C5.21856 15.1867 5.31695 15.1627 5.40176 15.1171L5.414 15.1099L8.99847 13.3319Z" fill="white"/>
</g>
</svg>
