<svg width="18" height="18" viewBox="0 0 18 18" fill="none" xmlns="http://www.w3.org/2000/svg">
<g id="Frame 18">
<path id="Vector" d="M6.10239 5.29986C4.83563 5.63455 3.99379 6.42076 3.73046 7.50996C3.33148 9.16952 4.32693 10.2033 5.05507 10.9578C5.73932 11.6687 5.97871 11.9797 5.77523 12.4332C5.48198 13.0847 5.03712 13.3798 4.56632 13.6927C3.93394 14.1125 3.14596 14.6373 3.29757 15.9959C3.38135 16.7425 3.76238 17.3188 4.39875 17.6614C4.82167 17.8891 5.34633 18 5.93083 18C6.8425 18 7.90378 17.7287 8.95908 17.2039C11.3789 15.9998 13.0765 13.8689 13.4995 11.5004C13.7987 9.81908 13.4137 8.26646 12.4382 7.23865C10.8502 5.56523 8.18506 4.74932 6.10239 5.29986ZM12.3225 11.2945C11.9654 13.2946 10.5091 15.1067 8.42445 16.1424C7.0759 16.8138 5.68745 17.0039 4.96929 16.6177C4.68003 16.4613 4.52642 16.2216 4.48653 15.8652C4.41471 15.2235 4.6541 15.0651 5.23062 14.6809C5.76525 14.3244 6.43354 13.8828 6.86644 12.9184C7.41703 11.6925 6.58516 10.831 5.91687 10.1379C5.23461 9.42894 4.64412 8.81701 4.89149 7.78721C5.09098 6.95942 5.8271 6.60295 6.40761 6.44848C6.71881 6.36531 7.07391 6.32372 7.45094 6.32372C8.78553 6.32372 10.4253 6.85446 11.5664 8.05655C12.2826 8.80513 12.5559 9.98741 12.3225 11.2945ZM4.87553 4.45425C5.37625 4.27205 5.76326 3.84429 5.93482 3.27988C6.09042 2.76697 6.06648 2.18078 5.863 1.62825C5.65952 1.07573 5.30044 0.60836 4.8496 0.317245C4.35087 -0.00555612 3.77834 -0.0867512 3.27762 0.0954431C2.7769 0.275657 2.38989 0.703417 2.21833 1.2698C2.06273 1.78272 2.08667 2.36891 2.29015 2.92144C2.65721 3.91954 3.48309 4.55326 4.31895 4.55326C4.50448 4.55326 4.692 4.52158 4.87553 4.45425ZM3.41527 2.51546C3.30156 2.20652 3.2836 1.87976 3.3634 1.61439C3.39931 1.49557 3.49107 1.28367 3.68657 1.21237C3.73245 1.19653 3.78033 1.18861 3.82622 1.18861C3.97583 1.18861 4.11348 1.26188 4.19527 1.31337C4.42867 1.46388 4.62617 1.72727 4.73988 2.03621C4.85359 2.34515 4.87154 2.67191 4.79174 2.93728C4.75584 3.0561 4.66407 3.268 4.46857 3.33929C4.15138 3.45218 3.64468 3.14126 3.41527 2.51546ZM13.665 5.21669C14.1279 4.67011 14.2057 3.97698 13.8366 3.672C13.4695 3.36504 12.7953 3.5611 12.3325 4.10768C11.8696 4.65624 11.7918 5.34739 12.1609 5.65435C12.5299 5.95933 13.2022 5.76525 13.665 5.21669ZM10.2079 4.57109C10.6428 4.77309 11.2412 4.41068 11.5465 3.76309C11.8517 3.11551 11.744 2.42634 11.3091 2.22633C10.8742 2.02631 10.2757 2.38673 9.9705 3.03432C9.66727 3.6819 9.773 4.36909 10.2079 4.57109ZM8.0155 4.25225C8.49228 4.30176 8.94113 3.76706 9.01693 3.0561C9.09274 2.34515 8.76558 1.72925 8.2888 1.67974C7.81202 1.63023 7.36317 2.16493 7.28736 2.87589C7.21355 3.58684 7.53872 4.20274 8.0155 4.25225ZM15.7357 5.55533C15.4265 5.19094 14.7303 5.2662 14.1797 5.72565C13.6271 6.18509 13.4316 6.85248 13.7389 7.21885C14.0481 7.58324 14.7443 7.50798 15.2949 7.04853C15.8475 6.58909 16.045 5.9217 15.7357 5.55533Z" fill="white"/>
</g>
</svg>
