<svg width="18" height="18" viewBox="0 0 18 18" fill="none" xmlns="http://www.w3.org/2000/svg">
<g id="&#233;&#166;&#150;&#233;&#161;&#181; (12) 1" clip-path="url(#clip0_447_234)">
<g id="&#233;&#166;&#150;&#233;&#161;&#181; (12) 2" clip-path="url(#clip1_447_234)">
<path id="Vector" d="M15.4281 17.8074H2.57095C1.28524 17.8074 0.192383 16.7146 0.192383 15.4289V8.74316C0.192383 8.10031 0.449526 7.52174 0.899526 7.07174L6.74953 1.22174C7.97095 0.000306871 10.0281 0.000306871 11.2495 1.22174L17.1638 7.07174C17.6138 7.52174 17.871 8.10031 17.871 8.74316V15.4289C17.8067 16.7789 16.7781 17.8074 15.4281 17.8074ZM8.99953 1.80031C8.54953 1.80031 8.16381 1.92888 7.84238 2.25031L1.9281 8.10031C1.79953 8.22888 1.67095 8.48602 1.67095 8.67888V15.4289C1.67095 15.8789 2.05667 16.2646 2.50667 16.2646H15.4281C15.8781 16.2646 16.2638 15.8789 16.2638 15.4289V8.74316C16.2638 8.55031 16.1995 8.29316 16.0067 8.16459L10.0924 2.31459C9.83524 1.92888 9.44953 1.80031 8.99953 1.80031Z" fill="white"/>
<path id="Subtract" fill-rule="evenodd" clip-rule="evenodd" d="M8.5 1L2 7L1 8.5V15.5L2 17H15.5L17 16V8.5L16 7L10 1H8.5ZM11.8926 11.5713H6.10686C5.59258 11.5713 5.14258 12.0213 5.14258 12.5356C5.14258 13.0499 5.59258 13.4999 6.10686 13.4999H11.8926C12.4069 13.4999 12.8569 13.0499 12.8569 12.5356C12.8569 12.0213 12.4069 11.5713 11.8926 11.5713Z" fill="white"/>
</g>
</g>
<defs>
<clipPath id="clip0_447_234">
<rect width="18" height="18" fill="white"/>
</clipPath>
<clipPath id="clip1_447_234">
<rect width="18" height="18" fill="white"/>
</clipPath>
</defs>
</svg>
