<svg width="18" height="18" viewBox="0 0 18 18" fill="none" xmlns="http://www.w3.org/2000/svg">
<g id="Frame 16">
<path id="Vector" d="M3.45588 9.66513L3.46206 9.67138L8.52288 14.6089C8.72348 14.8047 8.98024 14.9149 9.24725 14.9197C9.51426 14.9245 9.77411 14.8237 9.98031 14.6351L15.1981 9.85888C15.6397 9.49967 16.006 9.03844 16.2719 8.50691C16.5378 7.97538 16.6969 7.38617 16.7383 6.7798C16.7797 6.17343 16.7024 5.56429 16.5117 4.99428C16.321 4.42427 16.0215 3.90692 15.6337 3.47781C15.2459 3.04871 14.779 2.71802 14.2652 2.50851C13.7514 2.29899 13.2029 2.21562 12.6573 2.26413C12.1118 2.31263 11.5821 2.49186 11.1049 2.78949C10.6276 3.08712 10.214 3.49609 9.89256 3.98825L9.4375 4.68513L8.98244 3.9895C8.66799 3.50796 8.26527 3.10592 7.80081 2.80988C7.33635 2.51385 6.82071 2.33053 6.28785 2.27202C5.755 2.21352 5.21704 2.28114 4.70941 2.47044C4.20179 2.65974 3.73603 2.96641 3.34284 3.37026C2.94964 3.77411 2.63794 4.26595 2.42826 4.81338C2.21858 5.36081 2.11569 5.9514 2.12637 6.54623C2.13705 7.14105 2.26106 7.72661 2.49022 8.26431C2.71938 8.80202 3.0485 9.27965 3.45588 9.66575V9.66513ZM1 6.46075C0.99998 5.37429 1.29164 4.31251 1.83769 3.41124C2.38374 2.50996 3.15934 1.81015 4.06529 1.40133C4.97125 0.992515 5.96636 0.893265 6.92336 1.11628C7.88036 1.33929 8.75573 1.87444 9.4375 2.65325C10.1193 1.87444 10.9946 1.33929 11.9516 1.11628C12.9086 0.893265 13.9038 0.992515 14.8097 1.40133C15.7157 1.81015 16.4913 2.50996 17.0373 3.41124C17.5834 4.31251 17.875 5.37429 17.875 6.46075C17.8769 7.31364 17.698 8.15504 17.3529 8.91684C17.0077 9.67864 16.506 10.3394 15.8883 10.8458L10.6964 15.5995C10.2841 15.9772 9.76427 16.1795 9.23 16.1702C8.69572 16.1609 8.18186 15.9407 7.78038 15.5489L2.72238 10.6126C2.18175 10.1005 1.74773 9.46399 1.45034 8.74711C1.15294 8.03023 0.999289 7.25012 1 6.46075Z" fill="white"/>
</g>
</svg>
