<svg width="18" height="18" viewBox="0 0 18 18" fill="none" xmlns="http://www.w3.org/2000/svg">
<g id="Group 48096666">
<g id="&#230;&#136;&#145;&#231;&#154;&#132; (7) 1" clip-path="url(#clip0_447_240)">
<g id="Group 48096706">
<g id="&#230;&#136;&#145;&#231;&#154;&#132; (7) 1_2" clip-path="url(#clip1_447_240)">
<path id="Vector" d="M12.172 8.22651C12.7097 7.79132 13.1423 7.24755 13.4394 6.63343C13.7365 6.0193 13.8909 5.34972 13.8918 4.67174C13.8918 2.09273 11.6954 0 8.99835 0C6.30126 0 4.10494 2.09697 4.10494 4.67174C4.10538 5.34936 4.25915 6.01869 4.55548 6.63277C4.8518 7.24685 5.28349 7.79082 5.82027 8.22651C4.17513 8.56637 2.70013 9.44105 1.64105 10.7048C0.581975 11.9685 0.00278727 13.545 0 15.1715V15.4751C0.000871767 16.1445 0.276284 16.7862 0.765834 17.2596C1.25538 17.7329 1.91911 17.9992 2.61143 18H15.3886C16.0809 17.9992 16.7446 17.7329 17.2342 17.2596C17.7237 16.7862 17.9991 16.1445 18 15.4751V15.1736C17.9973 13.5457 17.4173 11.9679 16.3567 10.7036C15.296 9.43931 13.819 8.56496 12.172 8.22651ZM5.42273 4.67174C5.42273 2.79561 7.02605 1.27411 8.99835 1.27411C10.9707 1.27411 12.574 2.79561 12.574 4.67174C12.574 6.54787 10.9696 8.06937 8.99835 8.06937C7.02715 8.06937 5.42273 6.54787 5.42273 4.67174ZM16.6822 15.4751C16.6819 15.8068 16.5455 16.1247 16.303 16.3592C16.0604 16.5937 15.7316 16.7256 15.3886 16.7259H2.60814C2.26571 16.7248 1.93768 16.5925 1.69585 16.3581C1.45402 16.1237 1.31808 15.8062 1.3178 15.4751V15.1736C1.31954 13.6296 1.95471 12.1492 3.08394 11.0574C4.21318 9.96565 5.74425 9.35154 7.34122 9.34985H10.6621C12.259 9.35182 13.7899 9.96602 14.919 11.0578C16.0482 12.1495 16.6835 13.6296 16.6855 15.1736L16.6822 15.4751Z" fill="#7E7E7E"/>
</g>
<path id="Vector_2" d="M6 13H12C12.5333 13 13 13.4667 13 14C13 14.5333 12.5333 15 12 15H6C5.46667 15 5 14.5333 5 14C5 13.4667 5.46667 13 6 13Z" fill="#7E7E7E"/>
</g>
</g>
</g>
<defs>
<clipPath id="clip0_447_240">
<rect width="18" height="18" fill="white"/>
</clipPath>
<clipPath id="clip1_447_240">
<rect width="18" height="18" fill="white"/>
</clipPath>
</defs>
</svg>
