<svg viewBox="0 0 22 22" xmlns="http://www.w3.org/2000/svg">
<g id="Frame 15">
<path id="Union" fill-rule="evenodd" clip-rule="evenodd" d="M8.89393 2C4.53537 2 1 5.53537 1 9.89393C1 14.2525 4.53537 17.7879 8.89393 17.7879C10.9003 17.7879 12.7328 17.0382 14.1254 15.8048L18.779 19.7708L18.7808 19.7723C19.2574 20.1748 19.9187 20 20.2682 19.5883C20.6114 19.1842 20.6943 18.4995 20.2116 18.0905L20.2102 18.0893L15.5587 14.125C16.3369 12.9019 16.7879 11.4498 16.7879 9.89393C16.7879 5.53558 13.2576 2 8.89393 2ZM4.77124 5.76982C5.87183 4.66476 7.33699 4.05725 8.89393 4.05725C10.4553 4.05725 11.9164 4.66453 13.0226 5.7661C14.123 6.86671 14.7306 8.33202 14.7306 9.89393C14.7306 11.4553 14.1233 12.9164 13.0218 14.0226C11.9212 15.123 10.4558 15.7306 8.89393 15.7306C7.33137 15.7306 5.87057 15.1267 4.77053 14.0222C3.66987 12.9215 3.0621 11.456 3.0621 9.89393C3.0621 8.33137 3.66531 6.87128 4.76982 5.77124L4.77124 5.76982Z" fill="white"/>
</g>
</svg>
