<svg width="18" height="18" viewBox="0 0 18 18" fill="none" xmlns="http://www.w3.org/2000/svg">
<g id="&#232;&#174;&#190;&#231;&#189;&#174; 2">
<path id="Vector" d="M17.8287 8.37016L13.9587 1.66516C13.7337 1.27816 13.3197 1.03516 12.8697 1.03516H5.1297C4.6797 1.03516 4.2657 1.27816 4.0407 1.66516L0.170703 8.37016C-0.0542969 8.75716 -0.0542969 9.23416 0.170703 9.63016L4.0407 16.3352C4.2657 16.7222 4.6797 16.9652 5.1297 16.9652H12.8697C13.3197 16.9652 13.7337 16.7222 13.9587 16.3352L17.8287 9.63016C18.0537 9.24316 18.0537 8.75716 17.8287 8.37016ZM16.2627 9.63916L13.1847 14.9672C12.9597 15.3632 12.5367 15.6062 12.0777 15.6062H5.9217C5.4627 15.6062 5.0487 15.3632 4.8147 14.9672L1.7367 9.63916C1.5117 9.24316 1.5117 8.75716 1.7367 8.36116L4.8147 3.03316C5.0397 2.63716 5.4627 2.39416 5.9217 2.39416H12.0777C12.5367 2.39416 12.9507 2.63716 13.1847 3.03316L16.2627 8.36116C16.4877 8.75716 16.4877 9.24316 16.2627 9.63916Z" fill="white"/>
<path id="Vector_2" d="M8.99937 5.98535C7.33437 5.98535 5.98438 7.33535 5.98438 9.00035C5.98438 10.6654 7.33437 12.0154 8.99937 12.0154C10.6644 12.0154 12.0144 10.6654 12.0144 9.00035C12.0144 7.33535 10.6644 5.98535 8.99937 5.98535ZM8.99937 10.7014C8.06337 10.7014 7.29837 9.93635 7.29837 9.00035C7.29837 8.06435 8.06337 7.29935 8.99937 7.29935C9.93537 7.29935 10.7004 8.06435 10.7004 9.00035C10.7004 9.93635 9.93537 10.7014 8.99937 10.7014Z" fill="white"/>
</g>
</svg>
