<svg width="18" height="18" viewBox="0 0 18 18" fill="none" xmlns="http://www.w3.org/2000/svg">
<g id="&#229;&#136;&#135;&#230;&#141;&#162;&#232;&#186;&#171;&#228;&#187;&#189; 1">
<path id="Vector" d="M8.57691 9.32848C6.32294 9.32893 4.4956 7.50176 4.49515 5.2475C4.49471 2.99323 6.32161 1.16516 8.57557 1.16471H8.57691C10.8313 1.16516 12.6582 2.99323 12.6578 5.2475C12.6573 7.50131 10.8304 9.32803 8.57691 9.32848ZM8.57691 5.82001e-07C5.68035 -0.00134955 3.33084 2.34652 3.32995 5.24345V5.24795C3.32995 7.21058 4.42094 8.90319 6.01853 9.80238C3.09887 10.8532 1 13.6223 1 16.9045C1 17.1048 1.04355 17.2915 1.0591 17.49H1.07199C1.10488 17.8032 1.38573 18.0301 1.69859 17.9968C1.82752 17.9837 1.94813 17.9263 2.04032 17.834C2.1325 17.7418 2.1907 17.6204 2.20519 17.49H2.22297C2.20608 17.2938 2.1652 17.1048 2.1652 16.9054C2.16342 13.3654 5.03109 10.4941 8.57068 10.4923H8.57602L9.1595 10.4347C11.7761 10.1413 13.8203 7.94415 13.8203 5.2466C13.8203 2.35057 11.4739 0.00270084 8.57824 0.000900666M16.5791 14.9797C16.5444 14.9702 16.5107 14.9585 16.4738 14.9585H10.0194C9.96268 14.9582 9.90644 14.9691 9.8539 14.9908C9.80136 15.0124 9.75355 15.0444 9.71319 15.0847C9.67283 15.1251 9.64072 15.1731 9.61869 15.2261C9.59666 15.279 9.58514 15.3358 9.58479 15.3933C9.58479 15.6331 9.77943 15.828 10.0194 15.828H15.4819L14.0123 17.2695C13.9729 17.3078 13.9415 17.3538 13.9199 17.4045C13.8983 17.4553 13.8869 17.51 13.8863 17.5653C13.8858 17.6206 13.8961 17.6755 13.9168 17.7267C13.9374 17.7779 13.9679 17.8244 14.0065 17.8635L14.0123 17.8689C14.0938 17.9493 14.203 17.9942 14.3167 17.9942C14.4304 17.9942 14.5396 17.9493 14.6211 17.8689L16.8231 15.6993C16.8629 15.6598 16.8946 15.6127 16.9162 15.5607C16.9378 15.5087 16.949 15.4528 16.949 15.3964C16.949 15.34 16.9378 15.2841 16.9162 15.2321C16.8946 15.1801 16.8629 15.133 16.8231 15.0935C16.756 15.0294 16.6699 14.9894 16.5782 14.9797M9.93808 13.6286C9.97431 13.6385 10.0117 13.6435 10.0492 13.6435H16.5382C16.6499 13.6538 16.761 13.6188 16.8473 13.5463C16.9336 13.4737 16.988 13.3695 16.9986 13.2565C17.0036 13.1942 16.9951 13.1316 16.9736 13.073C16.9522 13.0145 16.9183 12.9614 16.8745 12.9175C16.8306 12.8736 16.7777 12.84 16.7196 12.819C16.6615 12.798 16.5996 12.7902 16.5382 12.7961H11.046L12.5231 11.3325C12.5636 11.2926 12.5958 11.2448 12.6178 11.1921C12.6398 11.1394 12.6512 11.0828 12.6514 11.0255C12.6516 10.9683 12.6405 10.9116 12.6187 10.8587C12.597 10.8059 12.5651 10.758 12.5249 10.7178C12.4435 10.636 12.3336 10.5899 12.219 10.5897C12.1043 10.5894 11.9942 10.635 11.9125 10.7164L9.69767 12.9059C9.65758 12.9456 9.62574 12.993 9.604 13.0454C9.58226 13.0978 9.57106 13.154 9.57106 13.2108C9.57106 13.2676 9.58226 13.3238 9.604 13.3762C9.62574 13.4285 9.65758 13.476 9.69767 13.5157C9.76344 13.5787 9.84787 13.6183 9.93808 13.6286Z" fill="white"/>
</g>
</svg>
